<svg width="24" height="24" viewBox="0 0 24 24" fill="none" xmlns="http://www.w3.org/2000/svg">
<path fill-rule="evenodd" clip-rule="evenodd" d="M10.8293 5.80275C8.38028 5.80275 6.44636 7.71578 6.44636 10.0133C6.44636 10.2625 6.46879 10.5059 6.51163 10.7421C6.58798 11.163 6.35753 11.5794 5.96037 11.7383C4.67953 12.2507 3.80491 13.4583 3.80491 14.8399C3.80491 16.667 5.34462 18.1987 7.30732 18.1987H15.8187C18.2676 18.1987 20.2016 16.2857 20.2016 13.9882C20.2016 11.7334 18.3397 9.84959 15.9554 9.77963C15.5474 9.76765 15.1985 9.48257 15.1055 9.08511C14.6701 7.22483 12.9364 5.80275 10.8293 5.80275ZM4.64636 10.0133C4.64636 6.66586 7.44291 4.00275 10.8293 4.00275C13.5152 4.00275 15.8231 5.67312 16.669 8.03421C19.6604 8.43562 22.0016 10.9258 22.0016 13.9882C22.0016 17.3356 19.205 19.9987 15.8187 19.9987H7.30732C4.40725 19.9987 2.00491 17.717 2.00491 14.8399C2.00491 12.9179 3.08168 11.2575 4.65715 10.371C4.64999 10.2526 4.64636 10.1333 4.64636 10.0133Z" fill="#2688EB"/>
</svg>
