<svg width="56" height="56" viewBox="0 0 56 56" fill="none" xmlns="http://www.w3.org/2000/svg">
<path d="M28 22C30.2091 22 32 20.2091 32 18C32 15.7909 30.2091 14 28 14C25.7909 14 24 15.7909 24 18C24 20.2091 25.7909 22 28 22Z" fill="#2688EB"/>
<path fill-rule="evenodd" clip-rule="evenodd" d="M14 18C14 10.268 20.268 4 28 4C35.732 4 42 10.268 42 18C42 27.0117 35.9236 34.4835 32.3103 38.1641C29.913 40.6061 26.087 40.6061 23.6897 38.1641C20.0764 34.4835 14 27.0117 14 18ZM28 8C22.4772 8 18 12.4772 18 18C18 25.3342 23.0565 31.8093 26.5441 35.3619C27.3736 36.2068 28.6264 36.2068 29.4559 35.3619C32.9435 31.8093 38 25.3342 38 18C38 12.4772 33.5228 8 28 8Z" fill="#2688EB"/>
<path d="M14.5243 33.1449C15.2432 33.9835 15.1461 35.2461 14.3075 35.965C12.7436 37.3057 12 38.7855 12 40C12 41.7052 13.2678 43.6696 16.2434 45.3227C19.1512 46.9382 23.3039 48 28 48C32.6961 48 36.8488 46.9382 39.7566 45.3227C42.7322 43.6696 44 41.7052 44 40C44 38.7519 43.315 37.3709 41.7131 36.0243C40.8676 35.3136 40.7583 34.052 41.469 33.2065C42.1798 32.3609 43.4414 32.2517 44.2869 32.9624C46.4424 34.7743 48 37.1787 48 40C48 43.8175 45.2383 46.8532 41.6992 48.8193C38.0923 50.8232 33.245 52 28 52C22.755 52 17.9077 50.8232 14.3008 48.8193C10.7617 46.8532 8 43.8175 8 40C8 37.2097 9.61946 34.7153 11.7042 32.9281C12.5428 32.2092 13.8054 32.3063 14.5243 33.1449Z" fill="#2688EB"/>
</svg>
