<svg width="56" height="56" viewBox="0 0 56 56" fill="none" xmlns="http://www.w3.org/2000/svg">
<path fill-rule="evenodd" clip-rule="evenodd" d="M24.7503 31.7759L24.7069 31.2898L24.2331 31.248C21.5163 31.0069 16.8702 30.5705 13.401 30.1106C11.7325 29.8893 10.1612 29.6415 9.27081 29.3721C4.57384 27.9512 4.54274 22.1383 8.18551 20.1966C8.8567 19.8389 11.0293 18.9792 13.7124 17.9528C16.4857 16.8919 20.014 15.5757 23.5717 14.2698C30.615 11.6845 37.979 9.06278 39.6814 8.61327C44.5403 7.33028 48.5476 11.7213 47.3835 16.5811C46.9296 18.4761 44.457 25.3924 42.0317 32.0069C39.5774 38.7005 37.0655 45.3667 36.4492 46.9098C34.535 51.7023 28.0336 51.4149 26.6208 46.7282C26.3586 45.8584 26.1143 44.2951 25.895 42.6336C25.4382 39.1731 24.9957 34.5069 24.7503 31.7759ZM10.486 25.3519C10.9923 25.5051 12.2153 25.7166 13.9525 25.947C15.6248 26.1687 17.6095 26.388 19.5218 26.5825C21.4314 26.7767 23.256 26.9448 24.6041 27.0644C25.3406 27.1298 26.0773 27.1928 26.8142 27.2544C27.8375 27.3379 28.6525 28.1501 28.7376 29.1738C28.8006 29.9159 28.865 30.658 28.9317 31.3998C29.0535 32.7555 29.2243 34.5894 29.4202 36.5057C29.6165 38.4247 29.8367 40.4137 30.0571 42.0837C30.2865 43.8212 30.4943 45.0315 30.6402 45.5155C30.7675 45.9377 31.0993 46.1628 31.4903 46.1761C32.0087 46.1938 32.3702 45.8032 32.5507 45.3513C33.1415 43.8722 35.6337 37.2602 38.0902 30.5605C40.5757 23.7819 42.9206 17.1898 43.3009 15.6023C43.8052 13.4971 42.2149 12.2881 40.7528 12.6742C39.2946 13.0592 32.1832 15.5826 25.0178 18.2128C21.4711 19.5147 17.9617 20.8238 15.2118 21.8758C12.3716 22.9623 10.5353 23.7031 10.1596 23.9034C9.91767 24.0323 9.75823 24.3112 9.78488 24.6355C9.81685 25.0245 10.1368 25.2463 10.486 25.3519Z" fill="#99A2AD"/>
</svg>
