<svg width="56" height="56" viewBox="0 0 56 56" fill="none" xmlns="http://www.w3.org/2000/svg">
<path d="M24.6512 32.1603L10.4833 30.6845C8.57632 30.4859 6.95084 29.2142 6.29909 27.411C5.36042 24.8141 6.70476 21.9478 9.30175 21.0092L38.772 10.3573C40.0899 9.88091 41.5331 9.88091 42.851 10.3573C45.9674 11.4837 47.5806 14.9231 46.4542 18.0395L35.8023 47.5098C35.1506 49.3129 33.5251 50.5846 31.6181 50.7832C28.8715 51.0693 26.4131 49.0747 26.127 46.3282L24.6512 32.1603ZM10.4979 24.8472C10.0879 25.0854 9.89403 25.5897 10.0609 26.0514C10.1913 26.412 10.5164 26.6663 10.8978 26.7061L26.6795 28.35C27.6201 28.448 28.3635 29.1914 28.4615 30.132L30.1055 45.9138C30.1627 46.4631 30.6544 46.862 31.2037 46.8048C31.5851 46.765 31.9102 46.5107 32.0405 46.1501L42.6924 16.6798C43.0679 15.6411 42.5302 14.4946 41.4914 14.1191C41.052 13.9603 40.571 13.9603 40.1317 14.1191L10.6614 24.771L10.4979 24.8472Z" fill="#2688EB"/>
</svg>
