<svg width="1024" height="1024" viewBox="0 0 1024 1024" fill="none" xmlns="http://www.w3.org/2000/svg">
<path d="M511.388 91.4286C634.662 91.4286 877.714 379.752 877.714 585.143C877.714 787.121 713.979 950.857 512 950.857C310.022 950.857 146.286 787.121 146.286 585.143C146.286 379.687 388.269 91.4286 511.388 91.4286ZM511.388 164.571C487.526 164.571 411.254 221.823 347.475 297.799C268.361 392.043 219.429 495.903 219.429 585.143C219.429 746.725 350.417 877.714 512 877.714C673.583 877.714 804.571 746.725 804.571 585.143C804.571 495.956 755.428 392.125 675.962 297.857C611.917 221.884 535.309 164.571 511.388 164.571Z" fill="#2688EB"/>
</svg>
