<svg width="56" height="56" viewBox="0 0 56 56" fill="none" xmlns="http://www.w3.org/2000/svg">
<path d="M26 8C35.9411 8 44 16.0589 44 26C44 29.9777 42.7098 33.654 40.525 36.6334L49.9445 46.0555C51.0185 47.1294 51.0185 48.8706 49.9445 49.9445C48.8706 51.0185 47.1294 51.0185 46.0555 49.9445L36.6334 40.525C33.654 42.7098 29.9777 44 26 44C16.0589 44 8 35.9411 8 26C8 16.0589 16.0589 8 26 8ZM26 13.5C19.0964 13.5 13.5 19.0964 13.5 26C13.5 32.9036 19.0964 38.5 26 38.5C32.9036 38.5 38.5 32.9036 38.5 26C38.5 19.0964 32.9036 13.5 26 13.5Z" fill="#99A2AD"/>
</svg>
